<svg version="1.1" xmlns="http://www.w3.org/2000/svg" xmlns:xlink="http://www.w3.org/1999/xlink" width="64px" height="64px" viewBox="0 0 256 256"><defs><linearGradient x1="49" y1="42.957" x2="49" y2="46.872" gradientUnits="userSpaceOnUse" id="color-1"><stop offset="0" stop-color="#000000"></stop><stop offset="1" stop-color="#000000"></stop></linearGradient><linearGradient x1="49.131" y1="20.957" x2="49.131" y2="29.884" gradientUnits="userSpaceOnUse" id="color-2"><stop offset="0" stop-color="#000000"></stop><stop offset="1" stop-color="#000000"></stop></linearGradient><linearGradient x1="22" y1="42.957" x2="22" y2="46.872" gradientUnits="userSpaceOnUse" id="color-3"><stop offset="0" stop-color="#000000"></stop><stop offset="1" stop-color="#000000"></stop></linearGradient><linearGradient x1="31.93" y1="17.118" x2="31.93" y2="52.118" gradientUnits="userSpaceOnUse" id="color-4"><stop offset="0" stop-color="#000000"></stop><stop offset="1" stop-color="#000000"></stop></linearGradient></defs><g fill="none" fill-rule="nonzero" stroke="none" stroke-width="1" stroke-linecap="butt" stroke-linejoin="miter" stroke-miterlimit="10" stroke-dasharray="" stroke-dashoffset="0" font-family="none" font-weight="none" font-size="none" text-anchor="none" style="mix-blend-mode: normal"><g transform="scale(4,4)"><circle cx="49" cy="45" r="2" fill="url(#color-1)"></circle><path d="M55.133,28.51l-3.938,-7c-0.177,-0.315 -0.51,-0.51 -0.872,-0.51h-6.323c-0.552,0 -1,0.448 -1,1v7c0,0.552 0.448,1 1,1h10.261c0.765,0 1.247,-0.824 0.872,-1.49z" fill="url(#color-2)"></path><circle cx="22" cy="45" r="2" fill="url(#color-3)"></circle><path d="M60.287,29.155l-5.339,-9.49c-0.885,-1.57 -2.555,-2.547 -4.357,-2.547h-10.661c-0.553,0 -1,0.447 -1,1v5.104c-2.303,-3.659 -6.367,-6.104 -11,-6.104h-12c-7.168,0 -13,5.832 -13,13c0,5.397 3.307,10.034 8.001,11.997c0,0.001 -0.001,0.002 -0.001,0.003v4c0,0.553 0.447,1 1,1h3.295c0.863,2.887 3.541,5 6.705,5c3.164,0 5.842,-2.113 6.705,-5h13.59c0.863,2.887 3.541,5 6.705,5c3.164,0 5.842,-2.113 6.705,-5h4.295c0.553,0 1,-0.447 1,-1v-4v-10.512c0,-0.858 -0.222,-1.705 -0.643,-2.451zM14.93,45.118h-2v-2h2.295c-0.19,0.634 -0.295,1.304 -0.295,2zM21.93,50.118c-2.757,0 -5,-2.243 -5,-5c0,-2.757 2.243,-5 5,-5c2.757,0 5,2.243 5,5c0,2.757 -2.243,5 -5,5zM27.666,41.118c-1.267,-1.811 -3.364,-3 -5.736,-3c-2.372,0 -4.469,1.189 -5.736,3h-0.264c-6.065,0 -11,-4.935 -11,-11c0,-6.065 4.935,-11 11,-11h12c6.065,0 11,4.935 11,11v11zM41.93,45.118h-13c0,-0.695 -0.105,-1.366 -0.295,-2h11.295h2.295c-0.19,0.634 -0.295,1.304 -0.295,2zM48.93,50.118c-2.757,0 -5,-2.243 -5,-5c0,-2.757 2.243,-5 5,-5c2.757,0 5,2.243 5,5c0,2.757 -2.243,5 -5,5zM58.93,45.118h-3c0,-0.695 -0.105,-1.366 -0.295,-2h3.295zM58.93,41.118h-4.264c-1.267,-1.811 -3.364,-3 -5.736,-3c-2.372,0 -4.469,1.189 -5.736,3h-2.264v-11v-11h9.661c1.082,0 2.084,0.586 2.615,1.528l5.339,9.489c0.252,0.448 0.385,0.956 0.385,1.471zM43,34.088h4v-2h-4zM57,39.092h2v-2l-1.942,-0.058l-0.058,-1.942h2v-2h-2c-1.105,0 -2,0.895 -2,2v2c0,1.105 0.895,2 2,2zM22,22.092c-3.86,0 -7,3.14 -7,7c0,3.86 3.14,7 7,7c3.86,0 7,-3.14 7,-7c0,-3.86 -3.14,-7 -7,-7zM22,34.092c-2.76,0 -5,-2.24 -5,-5c0,-2.76 2.24,-5 5,-5c2.76,0 5,2.24 5,5c0,2.76 -2.24,5 -5,5zM23,26.092h-2v3c0,0.553 0.447,1 1,1h3v-2h-2z" fill="url(#color-4)"></path></g></g></svg>